<?xml version="1.0" encoding="UTF-8"?>
<svg version="1.1" xmlns="http://www.w3.org/2000/svg" width="2000" height="2000">
<path d="M0 0 C660 0 1320 0 2000 0 C2000 660 2000 1320 2000 2000 C1340 2000 680 2000 0 2000 C0 1340 0 680 0 0 Z " fill="#FEFEFE" transform="translate(0,0)"/>
<path d="M0 0 C23.43 0 46.86 0 71 0 C83.57639919 33.15596151 83.57639919 33.15596151 89.68984985 49.60449219 C91.29267012 53.91690525 92.8976373 58.22851865 94.50236511 62.54022217 C95.35778731 64.838726 96.21310278 67.13726956 97.0683136 69.43585205 C101.51962957 81.39938798 105.97939567 93.359769 110.43997192 105.31985474 C111.80894451 108.99046669 113.17780566 112.66112019 114.54663086 116.33178711 C116.16418687 120.66944829 117.78176312 125.00710193 119.39937878 129.34474087 C122.69485087 138.18157077 125.99004326 147.01850494 129.28515625 155.85546875 C129.54267229 156.54608524 129.80018833 157.23670174 130.06550789 157.948246 C131.33862729 161.36255026 132.61174317 164.77685584 133.88485718 168.19116211 C136.24352926 174.51677229 138.60223535 180.84236978 140.9609375 187.16796875 C141.75048843 189.28540034 142.54003922 191.40283197 143.32958984 193.52026367 C143.65406097 194.39043625 143.9785321 195.26060883 144.31283569 196.15715027 C144.53959991 196.76529068 144.76636414 197.37343109 145 198 C147.9328079 191.68108285 150.73952906 185.36953278 153.13671875 178.828125 C153.41318741 178.08480927 153.68965607 177.34149353 153.97450256 176.57565308 C154.57010495 174.97374346 155.16405372 173.37121818 155.75646973 171.76812744 C157.39973506 167.32364088 159.05763914 162.88461654 160.71484375 158.4453125 C161.23753342 157.04422745 161.23753342 157.04422745 161.77078247 155.61483765 C165.70157727 145.09436258 169.72348539 134.60912824 173.75 124.125 C175.27645913 120.14859761 176.80249672 116.17203373 178.328125 112.1953125 C178.90256096 110.69798584 178.90256096 110.69798584 179.48860168 109.17041016 C183.85164432 97.7901192 188.17593872 86.39514582 192.5 75 C199.78755304 55.7956805 207.11673467 36.60763 214.47851562 17.43164062 C214.84326996 16.48087143 215.20802429 15.53010223 215.58383179 14.55052185 C216.26442584 12.77658758 216.94556587 11.00286265 217.62734985 9.22938538 C218.07695572 8.05731789 218.07695572 8.05731789 218.53564453 6.86157227 C218.79588409 6.18409439 219.05612366 5.50661652 219.32424927 4.80860901 C219.91834022 3.21855784 220.46323126 1.61030622 221 0 C243.44 0 265.88 0 289 0 C285.40989991 9.57360024 281.83326708 18.97029282 277.75 28.3125 C276.69231414 30.75709863 275.63594816 33.20221619 274.58203125 35.6484375 C274.30057755 36.30136276 274.01912384 36.95428802 273.72914124 37.6269989 C269.89781069 46.53537944 266.17374488 55.48894678 262.4375 64.4375 C256.15749493 79.47218439 249.8455721 94.49287164 243.5 109.5 C237.28662915 124.19756116 231.09557953 138.90418242 224.9375 153.625 C224.56769012 154.50899475 224.19788025 155.3929895 223.81686401 156.30377197 C221.21022105 162.53542099 218.6049466 168.76764172 216 175 C213.02178788 182.12539941 210.04294506 189.25053426 207.0625 196.375 C206.50790604 197.70075043 206.50790604 197.70075043 205.94210815 199.05328369 C199.76093175 213.8257691 193.53851189 228.58060244 187.30352783 243.33044434 C181.48994249 257.08492012 175.70027348 270.84915695 169.9375 284.625 C169.56769012 285.50899475 169.19788025 286.3929895 168.81686401 287.30377197 C166.21022105 293.53542099 163.6049466 299.76764172 161 306 C151.51154906 328.7012046 142.00429612 351.39417696 132.4375 374.0625 C132.01759796 375.05795837 131.59769592 376.05341675 131.16506958 377.07904053 C129.98451049 379.87723671 128.80299167 382.67502534 127.62109375 385.47265625 C127.26784027 386.3100383 126.91458679 387.14742035 126.55062866 388.01017761 C124.11538095 393.76923811 124.11538095 393.76923811 123 396 C102.21 396 81.42 396 60 396 C60.67632446 392.61837768 61.18180012 390.24030584 62.46435547 387.19921875 C62.76405746 386.48222305 63.06375946 385.76522736 63.37254333 385.02650452 C63.70077591 384.25463303 64.02900848 383.48276154 64.3671875 382.6875 C64.71366837 381.8624144 65.06014923 381.0373288 65.41712952 380.1872406 C66.56529342 377.45625877 67.72010737 374.72814238 68.875 372 C69.68341909 370.0809769 70.49143646 368.16178452 71.29907227 366.24243164 C73.42919331 361.18350189 75.56505768 356.12701725 77.70233154 351.07110596 C79.40023707 347.05278544 81.09498566 343.03313778 82.78948975 339.01338196 C84.02760889 336.07649649 85.26640616 333.13989789 86.50537109 330.20336914 C88.11783675 326.38155538 89.72862245 322.55903957 91.33837891 318.73608398 C94.73777849 310.67029927 98.15173427 302.61377249 101.67578125 294.6015625 C102.21070949 293.37588147 102.74531139 292.15005796 103.27954102 290.92407227 C104.2216022 288.7704544 105.17546884 286.62193896 106.14428711 284.48022461 C106.54526611 283.55991455 106.94624512 282.63960449 107.359375 281.69140625 C107.70452148 280.91998291 108.04966797 280.14855957 108.40527344 279.35375977 C109.67036016 274.34690383 107.61290709 269.59141794 105.76391602 264.95092773 C105.28486313 263.74082535 104.80581024 262.53072296 104.3122406 261.28395081 C103.77212342 259.93793386 103.23183862 258.59198417 102.69140625 257.24609375 C102.11420386 255.79618464 101.53744165 254.34610023 100.96107483 252.89585876 C99.33684232 248.81530493 97.70379281 244.7383331 96.06821442 240.66231537 C94.97425933 237.93584642 93.88163112 235.20884865 92.78924561 232.48175049 C87.31499647 218.81905936 81.82125033 205.16423461 76.32514954 191.51032257 C72.03062606 180.83993743 67.73988247 170.16803138 63.44921875 159.49609375 C62.96902409 158.30180756 62.48882942 157.10752136 61.9940834 155.87704468 C55.2164556 139.01918233 48.45303233 122.15569958 41.70703125 105.28515625 C41.09835614 103.76299972 41.09835614 103.76299972 40.47738457 102.21009254 C36.64701051 92.63039576 32.81868206 83.0498834 28.99298 73.46831989 C27.60770638 69.99916995 26.22194466 66.53021521 24.83592033 63.06136513 C24.17005803 61.39484993 23.50432109 59.72828463 22.83871651 58.06166649 C19.15063438 48.82918145 15.44095408 39.60596467 11.69335938 30.39746094 C11.16743509 29.10440694 11.16743509 29.10440694 10.63088608 27.78523064 C8.95570871 23.66783373 7.27737369 19.5517722 5.59356689 15.43789673 C4.99817454 13.97734616 4.40285387 12.51676636 3.80761719 11.05615234 C3.53632744 10.39660931 3.26503769 9.73706627 2.98552704 9.05753708 C1.75640431 6.03479838 0.79468893 3.17875571 0 0 Z " fill="#5964F1" transform="translate(1443,864)"/>
<path d="M0 0 C1.15048828 1.04220703 1.15048828 1.04220703 2.32421875 2.10546875 C3.14277344 2.83121094 3.96132813 3.55695312 4.8046875 4.3046875 C14.14318097 13.06404959 21.83777518 24.07364282 26.32421875 36.10546875 C26.32421875 36.76546875 26.32421875 37.42546875 26.32421875 38.10546875 C25.34710937 38.41097656 24.37 38.71648438 23.36328125 39.03125 C21.89188954 39.49337007 20.42053976 39.95562363 18.94921875 40.41796875 C18.14154053 40.67070557 17.3338623 40.92344238 16.50170898 41.18383789 C11.29333442 42.8231196 6.10067904 44.5043791 0.91967773 46.22792053 C-2.15085722 47.2488439 -5.22389114 48.26214302 -8.29693604 49.27548218 C-9.84045554 49.78690443 -11.38274275 50.3020611 -12.92376709 50.82095337 C-15.11804067 51.55936603 -17.31624893 52.28476427 -19.515625 53.0078125 C-20.17849014 53.23457672 -20.84135529 53.46134094 -21.52430725 53.69497681 C-27.3789544 55.59519309 -27.3789544 55.59519309 -30.67578125 54.10546875 C-32.2109375 52.28515625 -32.2109375 52.28515625 -33.73828125 49.98046875 C-41.29529791 39.84536538 -53.28136707 35.22287085 -65.36328125 32.85546875 C-81.35189283 30.56252833 -98.66894635 31.32820261 -112.67578125 40.10546875 C-113.27003906 40.47414063 -113.86429688 40.8428125 -114.4765625 41.22265625 C-119.60349753 44.91201397 -122.04481005 50.31320306 -123.05859375 56.40625 C-123.39387356 62.87715037 -121.47187188 67.96892148 -117.16796875 72.796875 C-110.28067727 79.18764081 -101.36363326 81.69140582 -92.48828125 84.10546875 C-91.5662793 84.36255615 -90.64427734 84.61964355 -89.69433594 84.88452148 C-87.85700362 85.396799 -86.0189676 85.90656049 -84.18017578 86.41357422 C-79.80037408 87.62359157 -75.4337096 88.87848235 -71.06640625 90.1328125 C-68.74547042 90.79861091 -66.42243384 91.45711753 -64.09765625 92.109375 C-8.89635945 107.76462875 -8.89635945 107.76462875 10.32421875 124.10546875 C11.02289062 124.69328125 11.7215625 125.28109375 12.44140625 125.88671875 C24.1682957 136.65537988 32.33093293 152.75268978 33.51708984 168.69824219 C34.23118966 193.21999715 30.11013948 212.2647743 13.32421875 231.10546875 C12.67066406 231.853125 12.01710938 232.60078125 11.34375 233.37109375 C-9.44130396 255.67700531 -42.39006192 265.25012047 -72.00216675 266.42378235 C-89.15402039 266.95124026 -106.00689458 266.5813735 -122.67578125 262.10546875 C-123.46146484 261.89647949 -124.24714844 261.68749023 -125.05664062 261.47216797 C-141.32588019 256.96606116 -156.20950212 249.59522268 -168.67578125 238.10546875 C-169.36671875 237.50605469 -170.05765625 236.90664062 -170.76953125 236.2890625 C-183.41724977 224.67022584 -190.89360236 208.31174164 -195.67578125 192.10546875 C-195.67578125 191.11546875 -195.67578125 190.12546875 -195.67578125 189.10546875 C-188.67077458 186.7550363 -181.66469799 184.40782346 -174.65722847 182.06474304 C-171.4036001 180.97671758 -168.15035412 179.88757628 -164.89794922 178.79589844 C-161.16093456 177.54161416 -157.42231465 176.29215842 -153.68359375 175.04296875 C-152.51273224 174.64924072 -151.34187073 174.2555127 -150.13552856 173.84985352 C-149.05455902 173.48947998 -147.97358948 173.12910645 -146.85986328 172.7578125 C-145.90500031 172.43804443 -144.95013733 172.11827637 -143.96633911 171.78881836 C-141.67578125 171.10546875 -141.67578125 171.10546875 -139.67578125 171.10546875 C-139.39605469 171.93949219 -139.11632812 172.77351563 -138.828125 173.6328125 C-134.24793861 186.48973441 -127.41704852 195.51216022 -115.48828125 202.23046875 C-97.51493354 210.74651879 -75.10721429 212.12690615 -56.3671875 205.58984375 C-47.94992453 202.20512425 -40.69750872 197.12808419 -36.54296875 188.84765625 C-34.49109964 182.3593134 -34.14312913 172.88420939 -37.30078125 166.66796875 C-47.64523472 153.68834285 -67.66587698 151.06104129 -82.67578125 147.10546875 C-85.61657041 146.30462125 -88.55290819 145.48841906 -91.48828125 144.66796875 C-92.15827148 144.48121582 -92.82826172 144.29446289 -93.51855469 144.10205078 C-95.00296586 143.68821289 -96.48716442 143.27361191 -97.97119141 142.85839844 C-100.03222633 142.28462775 -102.09466001 141.71587899 -104.15771484 141.14941406 C-135.37206397 132.56606883 -135.37206397 132.56606883 -149.67578125 125.10546875 C-151.33867188 124.24501953 -151.33867188 124.24501953 -153.03515625 123.3671875 C-170.12635833 113.93232341 -183.85163808 100.25553708 -189.84375 81.4375 C-194.63032204 60.47096612 -191.77325094 39.53145617 -180.67578125 21.10546875 C-178.49949255 17.95008215 -176.1732203 15.00997936 -173.67578125 12.10546875 C-172.91394531 11.14382813 -172.15210938 10.1821875 -171.3671875 9.19140625 C-154.03450065 -11.56872168 -123.90659862 -21.84277726 -97.86572266 -24.32617188 C-64.07762891 -27.10173406 -26.79142584 -22.89449118 0 0 Z " fill="#25ABF9" transform="translate(877.67578125,884.89453125)"/>
<path d="M0 0 C22.44 0 44.88 0 68 0 C68 112.2 68 224.4 68 340 C126.41 340 184.82 340 245 340 C245 358.48 245 376.96 245 396 C164.15 396 83.3 396 0 396 C0 265.32 0 134.64 0 0 Z " fill="#05D6FE" transform="translate(265,751)"/>
<path d="M0 0 C0.77927856 0.00100708 1.55855713 0.00201416 2.3614502 0.00305176 C5.24228408 0.00824093 8.12309682 0.02220184 11.00390625 0.03515625 C17.45953125 0.05578125 23.91515625 0.07640625 30.56640625 0.09765625 C30.56640625 18.57765625 30.56640625 37.05765625 30.56640625 56.09765625 C18.68640625 56.59265625 18.68640625 56.59265625 6.56640625 57.09765625 C-3.69308245 61.65742901 -9.42974649 64.8760064 -13.43359375 75.09765625 C-17.27575978 85.23050762 -16.98379674 95.60842504 -17.12109375 106.28515625 C-17.22421875 112.49328125 -17.32734375 118.70140625 -17.43359375 125.09765625 C-0.60359375 125.09765625 16.22640625 125.09765625 33.56640625 125.09765625 C33.56640625 143.57765625 33.56640625 162.05765625 33.56640625 181.09765625 C16.73640625 181.09765625 -0.09359375 181.09765625 -17.43359375 181.09765625 C-17.43359375 256.00765625 -17.43359375 330.91765625 -17.43359375 408.09765625 C-38.55359375 408.09765625 -59.67359375 408.09765625 -81.43359375 408.09765625 C-81.43359375 333.18765625 -81.43359375 258.27765625 -81.43359375 181.09765625 C-92.65359375 181.09765625 -103.87359375 181.09765625 -115.43359375 181.09765625 C-115.43359375 162.61765625 -115.43359375 144.13765625 -115.43359375 125.09765625 C-104.21359375 125.09765625 -92.99359375 125.09765625 -81.43359375 125.09765625 C-81.46839844 122.47699219 -81.50320313 119.85632813 -81.5390625 117.15625 C-81.90846957 82.05526489 -81.95052522 48.22016135 -56.48828125 21.01953125 C-41.43629251 6.48262958 -20.58358341 -0.12720136 0 0 Z " fill="#4979F4" transform="translate(1393.43359375,738.90234375)"/>
<path d="M0 0 C21.45 0 42.9 0 65 0 C65 26.07 65 52.14 65 79 C87.11 79 109.22 79 132 79 C132 97.48 132 115.96 132 135 C109.89 135 87.78 135 65 135 C65.09071155 158.85457962 65.09071155 158.85457962 65.20898438 182.70898438 C65.2633655 192.44391154 65.31478286 202.17878721 65.34643555 211.91381836 C65.36950734 219.0054164 65.40300664 226.09687802 65.44870156 233.18836766 C65.47251086 236.93855316 65.49131969 240.68860457 65.49761391 244.43886375 C65.50372105 247.97906713 65.52391975 251.518928 65.55427551 255.05900383 C65.56706593 256.956562 65.56550131 258.85420056 65.5632782 260.75180054 C65.70246029 273.65297421 67.87371421 287.91378074 76.7109375 297.94140625 C86.23545256 305.95887779 99.01882677 306.58922603 110.875 306.3125 C112.14085937 306.30283203 113.40671875 306.29316406 114.7109375 306.28320312 C120.63950882 306.21158698 126.09648792 305.84335887 132 305 C132 323.15 132 341.3 132 360 C120.48827839 361.91862027 110.45684006 363.49413846 98.99462891 363.39111328 C96.86686731 363.37493818 94.74098878 363.3911458 92.61328125 363.41015625 C77.9896424 363.43301126 64.45870238 360.96384298 51 355 C50.12859375 354.61972656 49.2571875 354.23945312 48.359375 353.84765625 C26.97808182 343.86299576 14.34389887 326.11495055 5.7109375 304.8203125 C-0.96333421 285.20508647 -0.42317091 264.24506044 -0.30418181 243.80258346 C-0.28512832 239.96299521 -0.28364244 236.12339593 -0.28010559 232.2837677 C-0.27086773 225.04891804 -0.24636888 217.81420818 -0.21605712 210.57941943 C-0.18225206 202.32759783 -0.16596224 194.07576873 -0.15097082 185.82389486 C-0.11980946 168.88250238 -0.0649041 151.94130193 0 135 C-12.87 135 -25.74 135 -39 135 C-39 116.52 -39 98.04 -39 79 C-26.13 79 -13.26 79 0 79 C0 52.93 0 26.86 0 0 Z " fill="#3496F7" transform="translate(978,785)"/>
<path d="M0 0 C21.12 0 42.24 0 64 0 C64 93.39 64 186.78 64 283 C42.88 283 21.76 283 0 283 C0 189.61 0 96.22 0 0 Z " fill="#3E89F5" transform="translate(1162,864)"/>
<path d="M0 0 C21.12 0 42.24 0 64 0 C64 93.39 64 186.78 64 283 C42.88 283 21.76 283 0 283 C0 189.61 0 96.22 0 0 Z " fill="#16BFFB" transform="translate(560,864)"/>
<path d="M0 0 C10.60310734 5.31652981 20.08972421 15.10059645 23.90234375 26.515625 C26.05553606 38.11795053 25.13549079 50.45042809 18.796875 60.5859375 C11.9768288 69.83293708 3.43963235 76.56963869 -8.015625 78.7421875 C-20.58953273 80.28569114 -31.36584326 78.87900037 -41.625 71.0625 C-42.429375 70.52625 -43.23375 69.99 -44.0625 69.4375 C-51.94535134 62.13144266 -57.04629746 52.66152841 -57.86328125 41.93359375 C-58.13881091 29.18672143 -55.45282893 19.45141975 -46.625 10.0625 C-34.80581673 -2.14693932 -15.95274482 -6.06829901 0 0 Z " fill="#3E89F5" transform="translate(1210.625,741.9375)"/>
<path d="M0 0 C11.54509494 7.16285274 19.2372775 16.08976183 23.02734375 29.2578125 C24.22352809 42.22942189 21.9609815 53.7840188 14.02734375 64.2578125 C7.16964054 72.01354827 -2.90744704 77.76357195 -13.37890625 78.49609375 C-24.59018533 78.79887811 -33.81355395 77.33530064 -42.97265625 70.2578125 C-43.5346875 69.85046875 -44.09671875 69.443125 -44.67578125 69.0234375 C-52.91872019 62.64411954 -57.36133216 53.43179268 -58.97265625 43.2578125 C-60.01562027 31.97834972 -58.51248068 22.72146442 -51.72265625 13.5078125 C-39.24598885 -1.26371761 -18.56228251 -9.33007522 0 0 Z " fill="#17BFFB" transform="translate(609.97265625,742.7421875)"/>
</svg>
